<svg width="23" height="19" viewBox="0 0 23 19" fill="none" xmlns="http://www.w3.org/2000/svg">
<path d="M16.0769 17.3328V14.4413C16.1173 14.0851 16.0479 13.7269 15.8734 13.3907C15.6989 13.0545 15.4232 12.7479 15.0646 12.4913C18.4462 12.2298 22 11.3407 22 7.26132C21.9997 6.21818 21.4214 5.21505 20.3846 4.45954C20.8755 3.54691 20.8408 2.53816 20.2877 1.64282C20.2877 1.64282 19.0169 1.38132 16.0769 2.74859C13.6086 2.28448 11.0068 2.28448 8.53846 2.74859C5.59846 1.38132 4.32769 1.64282 4.32769 1.64282C3.77456 2.53816 3.73985 3.54691 4.23077 4.45954C3.18629 5.22065 2.60733 6.23285 2.61538 7.28373C2.61538 11.3332 6.16923 12.2223 9.55077 12.5137C9.19646 12.7677 8.92321 13.0706 8.74879 13.4027C8.57438 13.7349 8.50272 14.0887 8.53846 14.4413V17.3328M8.53846 15.0913C3.15385 16.2121 3.15385 13.2235 1 12.8499L8.53846 15.0913Z" stroke="black" stroke-width="2" stroke-linecap="round" stroke-linejoin="round"/>
</svg>
