<svg width="147" height="37" viewBox="0 0 147 37" fill="none" xmlns="http://www.w3.org/2000/svg">
<path d="M70.4676 10.4368L70.5227 10.8744H70.9637H73.2794H73.8389L73.7762 10.3184C73.6211 8.94152 73.0486 7.80807 72.0507 6.95343L72.0507 6.95342L72.0483 6.95138C70.8556 5.94297 69.2555 5.46777 67.3074 5.46777C65.2825 5.46777 63.6619 5.86977 62.5229 6.75113C61.3889 7.62351 60.8353 8.86497 60.8353 10.4054C60.8353 11.4416 61.102 12.32 61.6961 12.9755L61.696 12.9756L61.703 12.983C62.264 13.5772 62.9545 14.0396 63.7649 14.3742C64.547 14.6971 65.3888 14.9539 66.289 15.1458L66.289 15.146L66.3022 15.1484C67.1806 15.3111 67.985 15.5035 68.7164 15.725L68.7164 15.7251L68.7286 15.7285C69.439 15.924 70.0002 16.1815 70.4274 16.4898L70.437 16.4967L70.4469 16.5032C70.8036 16.7357 70.9817 17.0587 70.9817 17.5428C70.9817 17.9292 70.8844 18.2286 70.7113 18.4673C70.536 18.709 70.2568 18.9245 69.8352 19.095C69.4452 19.246 69.0471 19.3495 68.6402 19.406C68.2195 19.4644 67.7553 19.4944 67.2464 19.4944C66.7957 19.4944 66.3304 19.4213 65.8487 19.2711C65.1987 19.0462 64.7271 18.7284 64.4026 18.3344C64.0785 17.9408 63.8762 17.4411 63.8134 16.8105L63.7685 16.3601H63.3158H60.9392H60.4108L60.44 16.8877C60.5285 18.4888 61.178 19.8086 62.3834 20.8105C63.6955 21.9412 65.4366 22.4804 67.5511 22.4804C69.5238 22.4804 71.1499 22.0749 72.3788 21.2101L72.3788 21.2101L72.3838 21.2065C73.6451 20.2957 74.2669 18.9785 74.2669 17.3256C74.2669 16.2678 73.9896 15.3709 73.3786 14.6967C72.8372 14.0776 72.1547 13.602 71.3428 13.2659C70.5556 12.9198 69.6994 12.6621 68.7762 12.4907C67.9134 12.3066 67.1127 12.1128 66.3736 11.9094C65.6596 11.7128 65.0794 11.4725 64.6232 11.1955C64.2875 10.9639 64.1205 10.6493 64.1205 10.1882C64.1205 9.59878 64.3379 9.20658 64.7654 8.934C65.2311 8.63703 65.9936 8.45384 67.1245 8.45384C68.2567 8.45384 69.0578 8.64957 69.5849 8.98192C70.0877 9.29895 70.3831 9.76567 70.4676 10.4368ZM79.5994 28.3765H80.0994V27.8765V20.6133C81.3489 21.8563 82.9596 22.4804 84.9012 22.4804C87.3218 22.4804 89.2934 21.6558 90.7605 19.984C92.2105 18.3522 92.9271 16.3376 92.9271 13.9741C92.9271 11.6106 92.2105 9.59602 90.7605 7.96431C89.2982 6.29776 87.3805 5.46777 85.0535 5.46777C83.0258 5.46777 81.3612 6.07917 80.0994 7.31207V6.21603V5.71603H79.5994H77.3142H76.8142V6.21603V27.8765V28.3765H77.3142H79.5994ZM81.2328 10.1359L81.2346 10.1338C82.0844 9.10248 83.2365 8.57797 84.7488 8.57797C86.2384 8.57797 87.4183 9.10141 88.3331 10.1445C89.1964 11.1362 89.6419 12.3997 89.6419 13.9741C89.6419 15.5485 89.1964 16.812 88.3331 17.8036C87.4183 18.8468 86.2384 19.3702 84.7488 19.3702C83.2365 19.3702 82.0844 18.8457 81.2346 17.8144L81.2328 17.8123C80.4062 16.8208 79.9776 15.5542 79.9776 13.9741C79.9776 12.394 80.4062 11.1274 81.2328 10.1359ZM96.7052 19.9824L96.7079 19.9855C98.1899 21.6502 100.117 22.4804 102.444 22.4804C104.472 22.4804 106.136 21.869 107.398 20.6361V21.7322V22.2322H107.898H110.183H110.683V21.7322V6.21603V5.71603H110.183H107.898H107.398V6.21603V7.33489C106.149 6.09193 104.538 5.46777 102.596 5.46777C100.175 5.46777 98.1947 6.29264 96.7079 7.96272L96.7052 7.96579C95.2759 9.59794 94.5704 11.612 94.5704 13.9741C94.5704 16.3362 95.2759 18.3502 96.7052 19.9824ZM106.265 17.8122L106.263 17.8144C105.413 18.8457 104.261 19.3702 102.749 19.3702C101.259 19.3702 100.079 18.8468 99.1645 17.8038C98.3012 16.8121 97.8556 15.5486 97.8556 13.9741C97.8556 12.3999 98.301 11.1365 99.164 10.145C100.079 9.10155 101.259 8.57797 102.749 8.57797C104.261 8.57797 105.413 9.10248 106.263 10.1338L106.265 10.1359C107.091 11.1274 107.52 12.394 107.52 13.9741C107.52 15.5542 107.091 16.8208 106.265 17.8122ZM126.019 16.3601H125.677L125.553 16.6792C125.241 17.4827 124.75 18.1298 124.076 18.631C123.414 19.1228 122.656 19.3702 121.784 19.3702C120.115 19.3702 118.86 18.8353 117.955 17.8028L117.952 17.7998C117.048 16.7842 116.586 15.5205 116.586 13.9741C116.586 12.4277 117.048 11.164 117.952 10.1484L117.952 10.1484L117.957 10.1437C118.375 9.66172 118.885 9.28004 119.493 8.99838C120.103 8.7248 120.861 8.57797 121.784 8.57797C122.656 8.57797 123.414 8.82542 124.076 9.31714C124.75 9.81842 125.241 10.4655 125.553 11.269L125.677 11.5881H126.019H128.487H129.163L128.965 10.9422C128.468 9.31347 127.555 7.9923 126.228 6.99551L126.228 6.99548L126.223 6.9918C124.828 5.97057 123.178 5.46777 121.296 5.46777C118.931 5.46777 116.975 6.29563 115.471 7.96003L115.471 7.96047C114.017 9.5737 113.301 11.5906 113.301 13.9741C113.301 16.3575 114.017 18.3745 115.471 19.9877L115.471 19.9882C116.975 21.6526 118.931 22.4804 121.296 22.4804C123.178 22.4804 124.828 21.9776 126.223 20.9564L126.228 20.9527C127.555 19.9559 128.468 18.6347 128.965 17.006L129.163 16.3601H128.487H126.019ZM135.981 28.3765H136.314L136.443 28.0687L145.462 6.40823L145.75 5.71603H145H142.502H142.161L142.036 6.03325L137.509 17.5606L133.065 6.03616L132.942 5.71603H132.599H130.07H129.327L129.607 6.40424L135.743 21.5081L133.055 27.6768L132.75 28.3765H133.513H135.981Z" fill="black" stroke="black"/>
<path d="M16.4247 3.06922C17.1909 1.71763 19.1383 1.71763 19.9044 3.06922L32.2026 24.7637C32.9585 26.097 31.9954 27.75 30.4628 27.75H5.86636C4.33376 27.75 3.37067 26.097 4.12647 24.7637L16.4247 3.06922Z" fill="black"/>
<path d="M28.1438 3.06922C28.91 1.71763 30.8574 1.71763 31.6236 3.06922L43.9218 24.7637C44.6776 26.097 43.7145 27.75 42.1819 27.75H17.5855C16.0529 27.75 15.0898 26.097 15.8456 24.7637L28.1438 3.06922Z" fill="white"/>
</svg>
